<svg width="81" height="81" viewBox="0 0 81 81" fill="none" xmlns="http://www.w3.org/2000/svg">
<circle cx="40.9416" cy="42.2499" r="34.4781" fill="#CFFAFE"/>
<path d="M40.3145 80.76C34.8347 80.76 29.6831 79.712 24.8599 77.6161C20.0367 75.5454 15.7816 72.6666 12.0948 68.9797C8.40789 65.3181 5.51647 61.0757 3.42051 56.2524C1.34981 51.4292 0.314453 46.2651 0.314453 40.76C0.314453 35.2802 1.34981 30.1287 3.42051 25.3055C5.51647 20.4822 8.39526 16.2272 12.0569 12.5403C15.7437 8.85344 19.9988 5.97466 24.822 3.90395C29.6705 1.80799 34.8347 0.76001 40.3145 0.76001C45.7943 0.76001 50.9458 1.80799 55.769 3.90395C60.6175 5.97466 64.8725 8.85344 68.5342 12.5403C72.221 16.2272 75.1124 20.4822 77.2084 25.3055C79.3044 30.1287 80.3523 35.2802 80.3523 40.76C80.3523 46.2651 79.3044 51.4292 77.2084 56.2524C75.1124 61.0757 72.221 65.3181 68.5342 68.9797C64.8725 72.6666 60.6301 75.5454 55.8069 77.6161C50.9836 79.712 45.8195 80.76 40.3145 80.76ZM40.3145 70.7979C44.4811 70.7979 48.3826 70.0151 52.019 68.4494C55.6554 66.909 58.8498 64.7752 61.6023 62.0479C64.3549 59.2954 66.5013 56.1009 68.0417 52.4646C69.6074 48.8282 70.3902 44.9267 70.3902 40.76C70.3902 36.5933 69.6074 32.7045 68.0417 29.0933C66.4761 25.457 64.317 22.2625 61.5645 19.51C58.8372 16.7575 55.6554 14.611 52.019 13.0706C48.3826 11.505 44.4811 10.7221 40.3145 10.7221C36.1478 10.7221 32.2463 11.505 28.6099 13.0706C24.9988 14.611 21.817 16.7575 19.0645 19.51C16.3119 22.2625 14.1655 25.457 12.6251 29.0933C11.0847 32.7045 10.3145 36.5933 10.3145 40.76C10.3145 44.9267 11.0847 48.8282 12.6251 52.4646C14.1655 56.1009 16.3119 59.2954 19.0645 62.0479C21.817 64.7752 25.0114 66.909 28.6478 68.4494C32.2842 70.0151 36.173 70.7979 40.3145 70.7979ZM40.4281 60.4949C37.12 60.4949 34.0897 59.813 31.3372 58.4494C28.5847 57.0858 26.2867 55.2045 24.4432 52.8055C22.5998 50.3812 21.3877 47.6034 20.8069 44.4721H17.6629C16.6528 44.4721 16.0089 44.0807 15.7311 43.2979C15.4786 42.4898 15.6427 41.6817 16.2235 40.8736L22.0569 33.0327C22.6124 32.2499 23.3069 31.8711 24.1402 31.8964C24.9988 31.8964 25.7059 32.2752 26.2614 33.0327L32.1705 40.8736C32.7513 41.6817 32.9028 42.4898 32.6251 43.2979C32.3473 44.0807 31.716 44.4721 30.7311 44.4721H27.8145C28.3448 46.2146 29.216 47.7802 30.4281 49.1691C31.6655 50.5327 33.1301 51.606 34.822 52.3888C36.5392 53.1716 38.4079 53.563 40.4281 53.563C41.7917 53.563 43.0544 53.361 44.216 52.957C45.3776 52.5529 46.5139 51.9469 47.6251 51.1388C48.6352 50.4822 49.5821 50.2423 50.466 50.4191C51.3751 50.5706 52.1326 51.0504 52.7387 51.8585C53.2943 52.6413 53.471 53.5125 53.269 54.4721C53.067 55.4317 52.4609 56.2903 51.4508 57.0479C50.0114 58.1085 48.3448 58.9545 46.4508 59.5858C44.5821 60.1918 42.5746 60.4949 40.4281 60.4949ZM40.3902 20.9115C43.6983 20.9115 46.716 21.5933 49.4432 22.957C52.1958 24.3206 54.4937 26.2146 56.3372 28.6388C58.1806 31.0378 59.4054 33.8029 60.0114 36.9343H63.0417C64.0266 36.9343 64.6579 37.3383 64.9357 38.1464C65.2134 38.9292 65.0493 39.7247 64.4432 40.5327L58.6099 48.4115C58.0544 49.1944 57.3599 49.5731 56.5266 49.5479C55.6932 49.5226 54.9862 49.1438 54.4054 48.4115L48.5342 40.5327C47.9281 39.7247 47.7639 38.9292 48.0417 38.1464C48.3195 37.3383 48.9508 36.9343 49.9357 36.9343H53.0038C52.4483 35.1918 51.5518 33.6388 50.3145 32.2752C49.1023 30.8863 47.6377 29.8004 45.9205 29.0176C44.2286 28.2348 42.3852 27.8433 40.3902 27.8433C39.0266 27.8433 37.7639 28.0454 36.6023 28.4494C35.4407 28.8534 34.2917 29.4595 33.1554 30.2676C32.1705 30.9242 31.2235 31.1767 30.3145 31.0252C29.4306 30.8484 28.6857 30.356 28.0796 29.5479C27.4988 28.7651 27.3094 27.8938 27.5114 26.9343C27.7134 25.9747 28.3321 25.1287 29.3675 24.3964C30.7816 23.3105 32.4357 22.4646 34.3296 21.8585C36.2235 21.2272 38.2437 20.9115 40.3902 20.9115Z" fill="#06B6D4"/>
</svg>
