<svg width="54" height="81" viewBox="0 0 54 81" fill="none" xmlns="http://www.w3.org/2000/svg">
<path d="M30.4291 13.4697L26.5767 45.2519H7.32404L30.4291 13.4697Z" fill="#CFFAFE"/>
<path d="M22.7243 69.3293L26.8994 36.5841L47.7648 36.5841L22.7243 69.3293Z" fill="#CFFAFE"/>
<path d="M18.9246 79.1221C18.27 79.9573 17.559 80.4652 16.7915 80.6457C16.024 80.8489 15.3243 80.7812 14.6923 80.4426C14.0828 80.1266 13.6539 79.5961 13.4056 78.8512C13.1573 78.1063 13.2137 77.226 13.5749 76.2102L23.4956 49.2924H3.7897C2.97709 49.2924 2.29991 49.0441 1.75817 48.5475C1.21643 48.0284 0.945557 47.3738 0.945557 46.5837C0.945557 45.7711 1.27286 44.9472 1.92746 44.112L35.0753 2.39793C35.7299 1.56275 36.4409 1.05486 37.2084 0.874283C37.9759 0.67113 38.6643 0.738848 39.2738 1.07744C39.9058 1.39345 40.346 1.92391 40.5943 2.6688C40.8426 3.4137 40.7861 4.29403 40.425 5.30979L30.5043 32.2276H50.2102C51.0454 32.2276 51.7225 32.4872 52.2417 33.0063C52.7835 33.5029 53.0543 34.1462 53.0543 34.9363C53.0543 35.7489 52.727 36.5728 52.0724 37.408L18.9246 79.1221ZM20.8884 69.2353L19.2971 68.6258L42.2195 38.4237H20.9223L33.1115 12.3186L34.7028 12.8942L11.7804 43.0963H33.1115L20.8884 69.2353Z" fill="#06B6D4"/>
</svg>
