<svg width="250" height="63" viewBox="0 0 250 63" fill="none" xmlns="http://www.w3.org/2000/svg">
<rect x="20.343" y="2.76102" width="17.2399" height="17.2399" rx="1.37919" fill="#F59E0B"/>
<path fill-rule="evenodd" clip-rule="evenodd" d="M59.7193 3.28985C59.4579 2.95604 59.0574 2.76102 58.6334 2.76102H44.8971C43.7473 2.76102 43.1024 4.08531 43.8113 4.99056L63.8111 30.5288C64.2023 31.0283 64.2023 31.7301 63.8111 32.2295L43.8113 57.7678C43.1024 58.6731 43.7473 59.9974 44.8971 59.9974H58.6334C59.0574 59.9974 59.4579 59.8023 59.7193 59.4685L81.051 32.2295C81.4421 31.7301 81.4421 31.0283 81.051 30.5288L59.7193 3.28985Z" fill="#06B6D4"/>
<rect x="20.343" y="42.7575" width="17.2399" height="17.2399" rx="1.37919" fill="#84CC16"/>
<rect y="22.7592" width="17.2399" height="17.2399" rx="1.37919" fill="#A855F7"/>
<path d="M106.532 24V5.94516H113.655C115.025 5.94516 116.191 6.2067 117.155 6.72977C118.119 7.24697 118.854 7.96693 119.359 8.88965C119.871 9.8065 120.126 10.8644 120.126 12.0634C120.126 13.2623 119.868 14.3202 119.35 15.2371C118.833 16.1539 118.084 16.868 117.102 17.3793C116.127 17.8906 114.945 18.1463 113.558 18.1463H109.018V15.0872H112.941C113.676 15.0872 114.281 14.9608 114.757 14.7081C115.239 14.4495 115.598 14.0939 115.833 13.6414C116.074 13.183 116.194 12.657 116.194 12.0634C116.194 11.4639 116.074 10.9408 115.833 10.4941C115.598 10.0416 115.239 9.69189 114.757 9.44505C114.275 9.19233 113.664 9.06597 112.924 9.06597H110.349V24H106.532ZM122.535 24V10.4589H126.176V12.8215H126.317C126.564 11.9811 126.978 11.3463 127.56 10.9173C128.142 10.4824 128.812 10.2649 129.57 10.2649C129.758 10.2649 129.961 10.2767 130.179 10.3002C130.396 10.3237 130.587 10.356 130.752 10.3972V13.7295C130.575 13.6767 130.331 13.6296 130.02 13.5885C129.708 13.5474 129.423 13.5268 129.165 13.5268C128.612 13.5268 128.119 13.6473 127.684 13.8882C127.255 14.1233 126.914 14.4524 126.661 14.8756C126.414 15.2988 126.291 15.7866 126.291 16.339V24H122.535ZM138.181 24.2645C136.812 24.2645 135.627 23.9736 134.628 23.3917C133.635 22.804 132.868 21.987 132.327 20.9409C131.787 19.8889 131.516 18.6694 131.516 17.2823C131.516 15.8835 131.787 14.6611 132.327 13.6149C132.868 12.5629 133.635 11.746 134.628 11.1641C135.627 10.5764 136.812 10.2826 138.181 10.2826C139.55 10.2826 140.732 10.5764 141.725 11.1641C142.724 11.746 143.494 12.5629 144.035 13.6149C144.576 14.6611 144.846 15.8835 144.846 17.2823C144.846 18.6694 144.576 19.8889 144.035 20.9409C143.494 21.987 142.724 22.804 141.725 23.3917C140.732 23.9736 139.55 24.2645 138.181 24.2645ZM138.199 21.3552C138.822 21.3552 139.342 21.1789 139.759 20.8263C140.176 20.4678 140.491 19.98 140.702 19.3629C140.92 18.7458 141.029 18.0434 141.029 17.2559C141.029 16.4683 140.92 15.766 140.702 15.1489C140.491 14.5318 140.176 14.044 139.759 13.6855C139.342 13.327 138.822 13.1477 138.199 13.1477C137.57 13.1477 137.041 13.327 136.612 13.6855C136.189 14.044 135.868 14.5318 135.651 15.1489C135.439 15.766 135.334 16.4683 135.334 17.2559C135.334 18.0434 135.439 18.7458 135.651 19.3629C135.868 19.98 136.189 20.4678 136.612 20.8263C137.041 21.1789 137.57 21.3552 138.199 21.3552ZM153.388 29.36C152.172 29.36 151.129 29.1925 150.259 28.8575C149.395 28.5284 148.707 28.0788 148.196 27.5087C147.685 26.9386 147.353 26.298 147.2 25.5869L150.673 25.1196C150.779 25.39 150.946 25.6427 151.176 25.8778C151.405 26.1129 151.708 26.3009 152.084 26.442C152.466 26.5889 152.93 26.6624 153.477 26.6624C154.294 26.6624 154.966 26.4626 155.495 26.0629C156.03 25.6691 156.298 25.0079 156.298 24.0793V21.6021H156.139C155.974 21.9782 155.728 22.3338 155.398 22.6688C155.069 23.0038 154.646 23.2771 154.129 23.4887C153.612 23.7003 152.995 23.8061 152.278 23.8061C151.261 23.8061 150.335 23.571 149.501 23.1008C148.672 22.6247 148.011 21.8989 147.517 20.9233C147.029 19.9418 146.785 18.7017 146.785 17.203C146.785 15.669 147.035 14.3878 147.535 13.3593C148.034 12.3308 148.698 11.5608 149.527 11.0495C150.362 10.5382 151.276 10.2826 152.269 10.2826C153.027 10.2826 153.662 10.4119 154.173 10.6705C154.684 10.9232 155.096 11.2405 155.407 11.6226C155.725 11.9987 155.969 12.369 156.139 12.7334H156.28V10.4589H160.009V24.1322C160.009 25.2842 159.727 26.248 159.163 27.0238C158.599 27.7996 157.817 28.3815 156.818 28.7694C155.825 29.1631 154.681 29.36 153.388 29.36ZM153.468 20.985C154.073 20.985 154.584 20.8351 155.002 20.5354C155.425 20.2298 155.748 19.7948 155.971 19.2306C156.201 18.6605 156.315 17.9788 156.315 17.1854C156.315 16.3919 156.204 15.7043 155.98 15.1224C155.757 14.5347 155.434 14.0792 155.011 13.756C154.587 13.4327 154.073 13.2711 153.468 13.2711C152.851 13.2711 152.331 13.4386 151.907 13.7736C151.484 14.1027 151.164 14.5612 150.946 15.1489C150.729 15.7366 150.62 16.4154 150.62 17.1854C150.62 17.967 150.729 18.6429 150.946 19.213C151.17 19.7772 151.49 20.2151 151.907 20.5266C152.331 20.8322 152.851 20.985 153.468 20.985ZM162.998 24V10.4589H166.639V12.8215H166.78C167.027 11.9811 167.441 11.3463 168.023 10.9173C168.605 10.4824 169.275 10.2649 170.033 10.2649C170.221 10.2649 170.424 10.2767 170.641 10.3002C170.858 10.3237 171.049 10.356 171.214 10.3972V13.7295C171.038 13.6767 170.794 13.6296 170.482 13.5885C170.171 13.5474 169.886 13.5268 169.627 13.5268C169.075 13.5268 168.581 13.6473 168.146 13.8882C167.717 14.1233 167.376 14.4524 167.123 14.8756C166.877 15.2988 166.753 15.7866 166.753 16.339V24H162.998ZM178.696 24.2645C177.304 24.2645 176.105 23.9824 175.1 23.4182C174.101 22.8481 173.331 22.0429 172.79 21.0026C172.249 19.9565 171.979 18.7193 171.979 17.2911C171.979 15.8982 172.249 14.6758 172.79 13.6238C173.331 12.5717 174.092 11.7519 175.073 11.1641C176.061 10.5764 177.218 10.2826 178.547 10.2826C179.44 10.2826 180.272 10.4265 181.042 10.7145C181.817 10.9966 182.493 11.4227 183.069 11.9928C183.651 12.5629 184.104 13.2799 184.427 14.1439C184.75 15.002 184.912 16.007 184.912 17.1589V18.1904H173.478V15.863H181.377C181.377 15.3223 181.259 14.8433 181.024 14.426C180.789 14.0087 180.463 13.6825 180.045 13.4474C179.634 13.2065 179.155 13.086 178.608 13.086C178.038 13.086 177.533 13.2182 177.092 13.4827C176.657 13.7413 176.316 14.091 176.069 14.5318C175.823 14.9667 175.696 15.4516 175.69 15.9864V18.1992C175.69 18.8692 175.814 19.4481 176.061 19.9359C176.313 20.4237 176.669 20.7999 177.127 21.0643C177.586 21.3288 178.129 21.461 178.758 21.461C179.175 21.461 179.558 21.4023 179.904 21.2847C180.251 21.1672 180.548 20.9909 180.795 20.7558C181.042 20.5207 181.23 20.2327 181.359 19.8918L184.832 20.121C184.656 20.9556 184.295 21.6844 183.748 22.3074C183.207 22.9245 182.508 23.4064 181.65 23.7532C180.798 24.094 179.813 24.2645 178.696 24.2645ZM198.629 14.3202L195.191 14.5318C195.132 14.2379 195.006 13.9735 194.812 13.7384C194.618 13.4974 194.362 13.3064 194.045 13.1653C193.733 13.0184 193.36 12.9449 192.925 12.9449C192.343 12.9449 191.853 13.0684 191.453 13.3152C191.053 13.5562 190.854 13.8794 190.854 14.2849C190.854 14.6082 190.983 14.8815 191.241 15.1048C191.5 15.3282 191.944 15.5074 192.573 15.6426L195.023 16.1363C196.34 16.4066 197.321 16.8415 197.968 17.441C198.614 18.0405 198.938 18.828 198.938 19.8037C198.938 20.6911 198.676 21.4699 198.153 22.1399C197.636 22.8099 196.925 23.3329 196.02 23.7091C195.12 24.0793 194.083 24.2645 192.908 24.2645C191.115 24.2645 189.687 23.8913 188.623 23.1449C187.565 22.3926 186.945 21.3699 186.763 20.077L190.457 19.883C190.568 20.4296 190.839 20.8469 191.268 21.1349C191.697 21.417 192.246 21.558 192.916 21.558C193.575 21.558 194.104 21.4317 194.503 21.1789C194.909 20.9203 195.115 20.5883 195.12 20.1827C195.115 19.8419 194.971 19.5627 194.688 19.3452C194.406 19.1219 193.971 18.9515 193.384 18.8339L191.039 18.3667C189.716 18.1022 188.732 17.6438 188.085 16.9914C187.445 16.339 187.124 15.5074 187.124 14.4965C187.124 13.6267 187.36 12.8773 187.83 12.2485C188.306 11.6196 188.973 11.1348 189.831 10.7939C190.695 10.453 191.706 10.2826 192.864 10.2826C194.574 10.2826 195.92 10.644 196.901 11.3669C197.889 12.0898 198.465 13.0742 198.629 14.3202ZM212.569 14.3202L209.131 14.5318C209.072 14.2379 208.946 13.9735 208.752 13.7384C208.558 13.4974 208.302 13.3064 207.985 13.1653C207.673 13.0184 207.3 12.9449 206.865 12.9449C206.283 12.9449 205.793 13.0684 205.393 13.3152C204.993 13.5562 204.794 13.8794 204.794 14.2849C204.794 14.6082 204.923 14.8815 205.181 15.1048C205.44 15.3282 205.884 15.5074 206.513 15.6426L208.963 16.1363C210.28 16.4066 211.261 16.8415 211.908 17.441C212.554 18.0405 212.878 18.828 212.878 19.8037C212.878 20.6911 212.616 21.4699 212.093 22.1399C211.576 22.8099 210.865 23.3329 209.96 23.7091C209.06 24.0793 208.023 24.2645 206.848 24.2645C205.055 24.2645 203.627 23.8913 202.563 23.1449C201.505 22.3926 200.885 21.3699 200.703 20.077L204.397 19.883C204.509 20.4296 204.779 20.8469 205.208 21.1349C205.637 21.417 206.186 21.558 206.856 21.558C207.515 21.558 208.044 21.4317 208.443 21.1789C208.849 20.9203 209.055 20.5883 209.06 20.1827C209.055 19.8419 208.911 19.5627 208.628 19.3452C208.346 19.1219 207.911 18.9515 207.324 18.8339L204.979 18.3667C203.656 18.1022 202.672 17.6438 202.025 16.9914C201.385 16.339 201.064 15.5074 201.064 14.4965C201.064 13.6267 201.3 12.8773 201.77 12.2485C202.246 11.6196 202.913 11.1348 203.771 10.7939C204.635 10.453 205.646 10.2826 206.804 10.2826C208.514 10.2826 209.86 10.644 210.841 11.3669C211.829 12.0898 212.405 13.0742 212.569 14.3202ZM215.243 24V10.4589H218.998V24H215.243ZM217.129 8.71333C216.571 8.71333 216.092 8.5282 215.692 8.15793C215.298 7.78179 215.102 7.33218 215.102 6.80911C215.102 6.29192 215.298 5.84819 215.692 5.47792C216.092 5.10178 216.571 4.91371 217.129 4.91371C217.687 4.91371 218.164 5.10178 218.557 5.47792C218.957 5.84819 219.157 6.29192 219.157 6.80911C219.157 7.33218 218.957 7.78179 218.557 8.15793C218.164 8.5282 217.687 8.71333 217.129 8.71333ZM234.631 10.4589L229.897 24H225.665L220.931 10.4589H224.898L227.71 20.1475H227.851L230.655 10.4589H234.631ZM242.287 24.2645C240.894 24.2645 239.695 23.9824 238.69 23.4182C237.691 22.8481 236.921 22.0429 236.381 21.0026C235.84 19.9565 235.57 18.7193 235.57 17.2911C235.57 15.8982 235.84 14.6758 236.381 13.6238C236.921 12.5717 237.683 11.7519 238.664 11.1641C239.651 10.5764 240.809 10.2826 242.137 10.2826C243.031 10.2826 243.862 10.4265 244.632 10.7145C245.408 10.9966 246.084 11.4227 246.66 11.9928C247.242 12.5629 247.694 13.2799 248.018 14.1439C248.341 15.002 248.503 16.007 248.503 17.1589V18.1904H237.068V15.863H244.967C244.967 15.3223 244.85 14.8433 244.615 14.426C244.38 14.0087 244.053 13.6825 243.636 13.4474C243.225 13.2065 242.746 13.086 242.199 13.086C241.629 13.086 241.124 13.2182 240.683 13.4827C240.248 13.7413 239.907 14.091 239.66 14.5318C239.413 14.9667 239.287 15.4516 239.281 15.9864V18.1992C239.281 18.8692 239.405 19.4481 239.651 19.9359C239.904 20.4237 240.26 20.7999 240.718 21.0643C241.177 21.3288 241.72 21.461 242.349 21.461C242.766 21.461 243.148 21.4023 243.495 21.2847C243.842 21.1672 244.139 20.9909 244.386 20.7558C244.632 20.5207 244.82 20.2327 244.95 19.8918L248.423 20.121C248.247 20.9556 247.885 21.6844 247.339 22.3074C246.798 22.9245 246.099 23.4064 245.241 23.7532C244.388 24.094 243.404 24.2645 242.287 24.2645Z" fill="white"/>
<path d="M106.532 56.7584V38.7035H113.655C115.025 38.7035 116.191 38.9651 117.155 39.4881C118.119 40.0053 118.854 40.7253 119.359 41.648C119.871 42.5649 120.126 43.6228 120.126 44.8217C120.126 46.0207 119.868 47.0786 119.35 47.9954C118.833 48.9123 118.084 49.6264 117.102 50.1377C116.127 50.649 114.945 50.9047 113.558 50.9047H109.018V47.8456H112.941C113.676 47.8456 114.281 47.7192 114.757 47.4665C115.239 47.2079 115.598 46.8523 115.833 46.3998C116.074 45.9413 116.194 45.4153 116.194 44.8217C116.194 44.2223 116.074 43.6992 115.833 43.2525C115.598 42.8 115.239 42.4503 114.757 42.2034C114.275 41.9507 113.664 41.8243 112.924 41.8243H110.349V56.7584H106.532ZM122.535 56.7584V43.2172H126.291V56.7584H122.535ZM124.422 41.4717C123.863 41.4717 123.384 41.2866 122.985 40.9163C122.591 40.5402 122.394 40.0906 122.394 39.5675C122.394 39.0503 122.591 38.6066 122.985 38.2363C123.384 37.8602 123.863 37.6721 124.422 37.6721C124.98 37.6721 125.456 37.8602 125.85 38.2363C126.25 38.6066 126.449 39.0503 126.449 39.5675C126.449 40.0906 126.25 40.5402 125.85 40.9163C125.456 41.2866 124.98 41.4717 124.422 41.4717ZM132.438 43.2172L134.924 47.9514L137.471 43.2172H141.324L137.401 49.9878L141.43 56.7584H137.595L134.924 52.0772L132.297 56.7584H128.418L132.438 49.9878L128.559 43.2172H132.438ZM149.241 57.0229C147.848 57.0229 146.649 56.7407 145.644 56.1765C144.645 55.6064 143.875 54.8013 143.334 53.761C142.793 52.7148 142.523 51.4777 142.523 50.0495C142.523 48.6566 142.793 47.4342 143.334 46.3821C143.875 45.3301 144.636 44.5102 145.617 43.9225C146.605 43.3348 147.762 43.0409 149.091 43.0409C149.984 43.0409 150.816 43.1849 151.586 43.4729C152.361 43.755 153.037 44.1811 153.613 44.7512C154.195 45.3213 154.648 46.0383 154.971 46.9023C155.294 47.7603 155.456 48.7653 155.456 49.9173V50.9487H144.022V48.6214H151.921C151.921 48.0807 151.803 47.6017 151.568 47.1844C151.333 46.7671 151.007 46.4409 150.589 46.2058C150.178 45.9649 149.699 45.8444 149.152 45.8444C148.582 45.8444 148.077 45.9766 147.636 46.2411C147.201 46.4997 146.86 46.8494 146.613 47.2902C146.367 47.7251 146.24 48.21 146.234 48.7448V50.9576C146.234 51.6276 146.358 52.2065 146.605 52.6943C146.857 53.1821 147.213 53.5582 147.671 53.8227C148.13 54.0872 148.673 54.2194 149.302 54.2194C149.72 54.2194 150.102 54.1606 150.448 54.0431C150.795 53.9256 151.092 53.7492 151.339 53.5141C151.586 53.2791 151.774 52.9911 151.903 52.6502L155.376 52.8794C155.2 53.714 154.839 54.4427 154.292 55.0657C153.751 55.6828 153.052 56.1648 152.194 56.5115C151.342 56.8524 150.357 57.0229 149.241 57.0229ZM161.662 38.7035V56.7584H157.907V38.7035H161.662ZM175.937 47.0786L172.499 47.2902C172.44 46.9963 172.314 46.7318 172.12 46.4967C171.926 46.2558 171.67 46.0648 171.353 45.9237C171.041 45.7768 170.668 45.7033 170.233 45.7033C169.651 45.7033 169.161 45.8267 168.761 46.0736C168.361 46.3145 168.162 46.6378 168.162 47.0433C168.162 47.3666 168.291 47.6399 168.549 47.8632C168.808 48.0865 169.252 48.2658 169.881 48.401L172.331 48.8946C173.648 49.165 174.629 49.5999 175.276 50.1994C175.922 50.7989 176.246 51.5864 176.246 52.562C176.246 53.4495 175.984 54.2282 175.461 54.8982C174.944 55.5682 174.233 56.0913 173.328 56.4675C172.428 56.8377 171.391 57.0229 170.216 57.0229C168.423 57.0229 166.995 56.6496 165.931 55.9032C164.873 55.151 164.253 54.1283 164.071 52.8353L167.765 52.6414C167.877 53.188 168.147 53.6052 168.576 53.8932C169.005 54.1753 169.554 54.3164 170.224 54.3164C170.883 54.3164 171.412 54.19 171.811 53.9373C172.217 53.6787 172.423 53.3466 172.428 52.9411C172.423 52.6002 172.279 52.3211 171.996 52.1036C171.714 51.8803 171.279 51.7098 170.692 51.5923L168.347 51.1251C167.024 50.8606 166.04 50.4022 165.393 49.7498C164.753 49.0974 164.432 48.2658 164.432 47.2549C164.432 46.3851 164.668 45.6357 165.138 45.0069C165.614 44.378 166.281 43.8931 167.139 43.5522C168.003 43.2114 169.014 43.0409 170.172 43.0409C171.882 43.0409 173.228 43.4024 174.209 44.1253C175.197 44.8482 175.773 45.8326 175.937 47.0786Z" fill="white"/>
</svg>
