<svg width="81" height="81" viewBox="0 0 81 81" fill="none" xmlns="http://www.w3.org/2000/svg">
<circle cx="40.9415" cy="40.0951" r="32.3232" fill="#CFFAFE"/>
<path d="M40.3145 80.76C34.8347 80.76 29.6831 79.712 24.8599 77.6161C20.0367 75.5454 15.7816 72.6666 12.0948 68.9797C8.40789 65.3181 5.51647 61.0757 3.42051 56.2524C1.34981 51.4292 0.314453 46.2651 0.314453 40.76C0.314453 35.2802 1.34981 30.1287 3.42051 25.3055C5.51647 20.4822 8.39526 16.2272 12.0569 12.5403C15.7437 8.85344 19.9988 5.97466 24.822 3.90395C29.6705 1.80799 34.8347 0.76001 40.3145 0.76001C45.7943 0.76001 50.9458 1.80799 55.769 3.90395C60.6175 5.97466 64.8725 8.85344 68.5342 12.5403C72.221 16.2272 75.1124 20.4822 77.2084 25.3055C79.3044 30.1287 80.3523 35.2802 80.3523 40.76C80.3523 46.2651 79.3044 51.4292 77.2084 56.2524C75.1124 61.0757 72.221 65.3181 68.5342 68.9797C64.8725 72.6666 60.6301 75.5454 55.8069 77.6161C50.9836 79.712 45.8195 80.76 40.3145 80.76ZM40.3145 70.7979C44.4811 70.7979 48.3826 70.0151 52.019 68.4494C55.6554 66.909 58.8498 64.7752 61.6023 62.0479C64.3549 59.2954 66.5013 56.1009 68.0417 52.4646C69.6074 48.8282 70.3902 44.9267 70.3902 40.76C70.3902 36.5933 69.6074 32.7045 68.0417 29.0933C66.4761 25.457 64.317 22.2625 61.5645 19.51C58.8372 16.7575 55.6554 14.611 52.019 13.0706C48.3826 11.505 44.4811 10.7221 40.3145 10.7221C36.1478 10.7221 32.2463 11.505 28.6099 13.0706C24.9988 14.611 21.817 16.7575 19.0645 19.51C16.3119 22.2625 14.1655 25.457 12.6251 29.0933C11.0847 32.7045 10.3145 36.5933 10.3145 40.76C10.3145 44.9267 11.0847 48.8282 12.6251 52.4646C14.1655 56.1009 16.3119 59.2954 19.0645 62.0479C21.817 64.7752 25.0114 66.909 28.6478 68.4494C32.2842 70.0151 36.173 70.7979 40.3145 70.7979ZM40.2766 61.4418C39.822 61.4418 39.4432 61.2903 39.1402 60.9873C38.8372 60.6843 38.6857 60.2802 38.6857 59.7752V57.4267C35.7311 57.1994 33.3321 56.4418 31.4887 55.154C29.6705 53.8661 28.4836 52.3383 27.9281 50.5706C27.8271 50.2928 27.7513 50.0277 27.7008 49.7752C27.6503 49.5226 27.6251 49.2827 27.6251 49.0555C27.6251 48.1464 27.9155 47.4141 28.4963 46.8585C29.0771 46.2777 29.8725 45.9873 30.8826 45.9873C31.6402 45.9873 32.2842 46.1893 32.8145 46.5933C33.3448 46.9721 33.7867 47.5151 34.1402 48.2221C34.418 49.106 34.923 49.8509 35.6554 50.457C36.4129 51.063 37.423 51.4545 38.6857 51.6312V43.563L37.5114 43.2979C34.3549 42.5908 31.9559 41.4923 30.3145 40.0024C28.673 38.4873 27.8523 36.4545 27.8523 33.9039C27.8523 31.1514 28.8624 28.9039 30.8826 27.1615C32.9028 25.4191 35.5038 24.4216 38.6857 24.1691V21.7449C38.6857 20.6337 39.216 20.0782 40.2766 20.0782C40.7564 20.0782 41.1478 20.2297 41.4508 20.5327C41.7538 20.8358 41.9054 21.2398 41.9054 21.7449V24.1691C44.6074 24.4216 46.8549 25.1918 48.6478 26.4797C50.4407 27.7423 51.6023 29.2827 52.1326 31.1009C52.2084 31.3282 52.2715 31.5681 52.322 31.8206C52.3725 32.0731 52.3978 32.3257 52.3978 32.5782C52.3978 33.4368 52.1074 34.1312 51.5266 34.6615C50.9458 35.1666 50.1756 35.4191 49.216 35.4191C47.8018 35.4191 46.7033 34.6994 45.9205 33.26C45.5922 32.4014 45.0872 31.6944 44.4054 31.1388C43.7235 30.5832 42.8902 30.2045 41.9054 30.0024V37.7297L43.2311 37.9949C46.5392 38.6262 49.0139 39.6994 50.6554 41.2146C52.2968 42.7297 53.1175 44.7878 53.1175 47.3888C53.1175 50.2928 52.0695 52.6287 49.9735 54.3964C47.9028 56.1388 45.2134 57.1489 41.9054 57.4267V59.7752C41.9054 60.2802 41.7538 60.6843 41.4508 60.9873C41.1478 61.2903 40.7564 61.4418 40.2766 61.4418ZM38.6857 36.9343V29.9267C37.4483 30.1034 36.4761 30.5075 35.769 31.1388C35.0619 31.7701 34.7084 32.5277 34.7084 33.4115C34.7084 34.2449 35.0114 34.9393 35.6175 35.4949C36.2235 36.0504 37.1579 36.505 38.4205 36.8585L38.6857 36.9343ZM41.9054 44.3206V51.6312C43.3448 51.4797 44.4306 51.0883 45.1629 50.457C45.8953 49.8004 46.2614 48.9797 46.2614 47.9949C46.2614 47.111 45.971 46.3913 45.3902 45.8358C44.8094 45.255 43.8372 44.7878 42.4735 44.4343L41.9054 44.3206Z" fill="#06B6D4"/>
</svg>
