<svg width="98" height="81" viewBox="0 0 98 81" fill="none" xmlns="http://www.w3.org/2000/svg">
<path d="M14.4015 73.4131C10.0696 73.4131 6.73845 72.2605 4.40787 69.9552C2.10263 67.6753 0.950012 64.3948 0.950012 60.1136V14.0975C0.950012 9.79098 2.10263 6.49778 4.40787 4.21787C6.73845 1.91263 10.0696 0.76001 14.4015 0.76001H78.2769C82.6087 0.76001 85.9273 1.91263 88.2325 4.21787C90.5377 6.49778 91.6904 9.79098 91.6904 14.0975V44.7622L81.8868 34.9586V15.3134C81.8868 13.6922 81.4814 12.5015 80.6708 11.7416C79.8855 10.9563 78.7202 10.5636 77.175 10.5636H15.4654C13.9455 10.5636 12.7802 10.9563 11.9696 11.7416C11.1589 12.5015 10.7536 13.6922 10.7536 15.3134V58.8977C10.7536 60.5189 11.1589 61.7096 11.9696 62.4695C12.7802 63.2295 13.9455 63.6095 15.4654 63.6095H64.9774L64.7494 73.4131H14.4015ZM70.5252 68.0553L71.0192 36.8586C71.0445 35.8453 71.4625 35.174 72.2731 34.8446C73.0838 34.5153 73.8438 34.718 74.5531 35.4526L96.3262 57.4917C96.8328 57.9984 97.0735 58.543 97.0482 59.1257C97.0228 59.683 96.7948 60.1643 96.3642 60.5696C95.9589 60.9749 95.4016 61.1649 94.6922 61.1396H87.1685L93.5903 75.997C93.8183 76.4783 93.8816 77.0356 93.7803 77.6689C93.7043 78.3276 93.2863 78.7962 92.5263 79.0749L88.4985 80.5948C87.7385 80.8481 87.0926 80.8101 86.5606 80.4808C86.0539 80.1515 85.6739 79.6828 85.4206 79.0749L79.4549 64.1795L74.3631 69.5372C73.8817 70.0439 73.3371 70.2972 72.7291 70.2972C72.1465 70.3225 71.6272 70.1325 71.1712 69.7272C70.7405 69.3472 70.5252 68.7899 70.5252 68.0553Z" fill="#06B6D4"/>
<path d="M17.2007 55.1527C17.2007 56.7993 17.9987 57.6226 19.5946 57.6226H65.3447L65.6487 37.0655C65.6741 35.6975 65.9907 34.5069 66.5987 33.4936C67.2067 32.455 67.992 31.6443 68.9546 31.0617C69.9172 30.4537 70.9559 30.1117 72.0705 30.0357C73.1851 29.9344 74.2617 30.1497 75.3004 30.6817C75.4017 30.783 75.503 30.897 75.6043 31.0237C75.731 31.1504 75.845 31.277 75.9463 31.4037V19.3582C75.9463 17.7369 75.1484 16.9263 73.5524 16.9263H19.5946C17.9987 16.9263 17.2007 17.7369 17.2007 19.3582V55.1527Z" fill="#CFFAFE"/>
</svg>
