<svg width="173" height="81" viewBox="0 0 173 81" fill="none" xmlns="http://www.w3.org/2000/svg">
<circle cx="37.6863" cy="20.8268" r="14.4099" fill="#CFFAFE"/>
<circle cx="85.7192" cy="20.8268" r="14.4099" fill="#CFFAFE"/>
<circle cx="136.154" cy="20.8268" r="14.4099" fill="#CFFAFE"/>
<path d="M70.2401 76.0646H6.46503C9.23716 61.035 22.4594 49.6465 38.3526 49.6465C54.2458 49.6465 67.468 61.035 70.2401 76.0646Z" fill="#CFFAFE"/>
<path d="M81.9143 76.0646H121.748C118.929 61.035 105.485 49.6465 89.3258 49.6465C83.6197 49.6465 78.2523 51.0665 73.5717 53.5653C76.6663 57.9788 79.2514 63.7215 80.8241 70.2303C81.3005 72.202 81.6622 74.1535 81.9143 76.0646Z" fill="#CFFAFE"/>
<path d="M122.335 53.2718C125.733 57.1896 128.505 62.4683 130.046 68.542C130.695 71.099 131.081 73.6256 131.227 76.0646H172.323C169.363 61.035 155.249 49.6465 138.284 49.6465C132.532 49.6465 127.108 50.9556 122.335 53.2718Z" fill="#CFFAFE"/>
<path d="M11.986 80.76C4.27446 80.76 0.418701 78.0582 0.418701 72.6545C0.418701 69.5586 1.31932 66.4205 3.12055 63.2402C4.94992 60.0599 7.52512 57.147 10.8461 54.5014C14.1953 51.8277 18.1636 49.6747 22.7512 48.0423C27.3387 46.41 32.4046 45.5938 37.949 45.5938C43.5216 45.5938 48.6016 46.41 53.1892 48.0423C57.7767 49.6747 61.7309 51.8277 65.0519 54.5014C68.373 57.147 70.9341 60.0599 72.7353 63.2402C74.5647 66.4205 75.4794 69.5586 75.4794 72.6545C75.4794 78.0582 71.6377 80.76 63.9543 80.76H11.986ZM11.6905 71.8524H64.2498C64.6439 71.8524 64.9253 71.7679 65.0942 71.5991C65.263 71.4583 65.3475 71.2332 65.3475 70.9236C65.3475 69.4882 64.7283 67.8559 63.4899 66.0265C62.2797 64.169 60.5067 62.3678 58.1707 60.6228C55.8347 58.8497 52.964 57.4003 49.5585 56.2745C46.1812 55.1206 42.3114 54.5437 37.949 54.5437C33.6148 54.5437 29.745 55.1206 26.3395 56.2745C22.9622 57.4003 20.0915 58.8497 17.7274 60.6228C15.3914 62.3678 13.6183 64.169 12.4081 66.0265C11.1979 67.8559 10.5928 69.4882 10.5928 70.9236C10.5928 71.2332 10.6632 71.4583 10.8039 71.5991C10.9728 71.7679 11.2683 71.8524 11.6905 71.8524ZM37.949 41.2033C34.4592 41.2033 31.2929 40.2886 28.4504 38.4592C25.6078 36.6298 23.3281 34.1813 21.6113 31.1136C19.9227 28.0177 19.0783 24.5841 19.0783 20.8128C19.0502 17.154 19.8945 13.8049 21.6113 10.7653C23.3281 7.72571 25.6078 5.3053 28.4504 3.50407C31.3211 1.6747 34.4873 0.76001 37.949 0.76001C41.4389 0.76001 44.6052 1.66063 47.4477 3.46186C50.3184 5.26309 52.5981 7.68349 54.2868 10.7231C56.0036 13.7345 56.862 17.0837 56.862 20.7706C56.862 24.5419 56.0036 27.9755 54.2868 31.0714C52.5981 34.1672 50.3184 36.6298 47.4477 38.4592C44.6052 40.2886 41.4389 41.2033 37.949 41.2033ZM37.9913 32.2534C39.7643 32.2534 41.3826 31.7468 42.8461 30.7336C44.3096 29.7204 45.4776 28.3414 46.3501 26.5964C47.2507 24.8515 47.701 22.9095 47.701 20.7706C47.701 18.6879 47.2507 16.8163 46.3501 15.1558C45.4776 13.4671 44.2956 12.1303 42.8039 11.1452C41.3404 10.1602 39.7362 9.66766 37.9913 9.66766C36.2182 9.66766 34.5858 10.1602 33.0942 11.1452C31.6307 12.1303 30.4486 13.4671 29.548 15.1558C28.6755 16.8444 28.2393 18.7301 28.2393 20.8128C28.2393 22.9799 28.6755 24.9359 29.548 26.6809C30.4486 28.3977 31.6307 29.7626 33.0942 30.7758C34.5858 31.7609 36.2182 32.2534 37.9913 32.2534ZM86.6245 45.5938C92.1971 45.5938 97.2771 46.41 101.865 48.0423C106.452 49.6747 110.406 51.8277 113.727 54.5014C117.048 57.147 119.61 60.0599 121.411 63.2402C123.24 66.4205 124.155 69.5586 124.155 72.6545C124.155 78.0582 120.299 80.76 112.588 80.76H79.8277C80.7564 79.4091 81.3615 77.9878 81.643 76.4962C81.9526 75.0045 82.0651 73.4566 81.9807 71.8524H112.925C113.319 71.8524 113.601 71.7679 113.77 71.5991C113.938 71.4583 114.023 71.2332 114.023 70.9236C114.023 69.4882 113.418 67.8559 112.208 66.0265C110.997 64.169 109.21 62.3678 106.846 60.6228C104.51 58.8497 101.639 57.4003 98.234 56.2745C94.8567 55.1206 90.9869 54.5437 86.6245 54.5437C84.6263 54.5437 82.7265 54.6844 80.9253 54.9658C79.1241 55.2473 77.4354 55.6554 75.8593 56.1901C74.9306 54.8673 73.8752 53.6149 72.6931 52.4328C71.5392 51.2508 70.2727 50.1391 68.8936 49.0977C71.4829 48.0001 74.2551 47.1417 77.2103 46.5225C80.1936 45.9034 83.3316 45.5938 86.6245 45.5938ZM86.6667 41.2033C83.1487 41.2033 79.9684 40.2886 77.1258 38.4592C74.2833 36.6298 72.0176 34.1813 70.329 31.1136C68.6403 28.0177 67.7819 24.5841 67.7538 20.8128C67.7538 17.154 68.5981 13.8049 70.2868 10.7653C72.0036 7.72571 74.2973 5.3053 77.168 3.50407C80.0388 1.6747 83.205 0.76001 86.6667 0.76001C90.1285 0.76001 93.2806 1.66063 96.1232 3.46186C98.9939 5.26309 101.274 7.68349 102.962 10.7231C104.679 13.7345 105.537 17.0837 105.537 20.7706C105.537 24.5419 104.693 27.9755 103.004 31.0714C101.316 34.1672 99.0361 36.6298 96.1654 38.4592C93.3228 40.2886 90.1566 41.2033 86.6667 41.2033ZM86.6667 32.2534C88.4398 32.2534 90.0581 31.7468 91.5216 30.7336C92.9851 29.7204 94.1531 28.3414 95.0256 26.5964C95.9262 24.8515 96.3765 22.9095 96.3765 20.7706C96.3765 18.6879 95.9262 16.8163 95.0256 15.1558C94.1531 13.4671 92.9851 12.1303 91.5216 11.1452C90.0581 10.1602 88.4398 9.66766 86.6667 9.66766C84.9218 9.66766 83.3035 10.1602 81.8118 11.1452C80.3202 12.1303 79.1241 13.4671 78.2235 15.1558C77.351 16.8444 76.9147 18.7301 76.9147 20.8128C76.9147 22.9799 77.351 24.9359 78.2235 26.6809C79.1241 28.3977 80.3061 29.7626 81.7696 30.7758C83.2613 31.7609 84.8936 32.2534 86.6667 32.2534ZM135.342 45.5938C140.915 45.5938 145.995 46.41 150.582 48.0423C155.17 49.6747 159.124 51.8277 162.445 54.5014C165.794 57.147 168.369 60.0599 170.171 63.2402C172 66.4205 172.915 69.5586 172.915 72.6545C172.915 78.0582 169.059 80.76 161.347 80.76H128.503C129.432 79.4091 130.037 77.9878 130.318 76.4962C130.628 75.0045 130.755 73.4566 130.698 71.8524H161.643C162.065 71.8524 162.347 71.7679 162.487 71.5991C162.656 71.4583 162.741 71.2332 162.741 70.9236C162.741 69.4882 162.121 67.8559 160.883 66.0265C159.673 64.169 157.9 62.3678 155.564 60.6228C153.228 58.8497 150.357 57.4003 146.952 56.2745C143.574 55.1206 139.705 54.5437 135.342 54.5437C133.344 54.5437 131.43 54.6984 129.601 55.008C127.8 55.2895 126.111 55.6835 124.535 56.1901C123.606 54.8955 122.551 53.6571 121.369 52.4751C120.215 51.2648 118.962 50.1391 117.611 49.0977C120.172 48.0001 122.931 47.1417 125.886 46.5225C128.869 45.9034 132.021 45.5938 135.342 45.5938ZM135.342 41.2033C131.852 41.2033 128.686 40.2886 125.844 38.4592C123.001 36.6298 120.735 34.1813 119.047 31.1136C117.358 28.0177 116.5 24.5841 116.471 20.8128C116.471 17.154 117.316 13.8049 119.004 10.7653C120.721 7.72571 123.001 5.3053 125.844 3.50407C128.714 1.6747 131.88 0.76001 135.342 0.76001C138.832 0.76001 141.998 1.66063 144.841 3.46186C147.712 5.26309 149.991 7.68349 151.68 10.7231C153.397 13.7345 154.255 17.0837 154.255 20.7706C154.255 24.5419 153.411 27.9755 151.722 31.0714C150.033 34.1672 147.754 36.6298 144.883 38.4592C142.041 40.2886 138.86 41.2033 135.342 41.2033ZM135.384 32.2534C137.157 32.2534 138.776 31.7468 140.239 30.7336C141.731 29.7204 142.913 28.3414 143.785 26.5964C144.658 24.8515 145.094 22.9095 145.094 20.7706C145.094 18.6879 144.658 16.8163 143.785 15.1558C142.913 13.4671 141.731 12.1303 140.239 11.1452C138.776 10.1602 137.157 9.66766 135.384 9.66766C133.639 9.66766 132.021 10.1602 130.53 11.1452C129.066 12.1303 127.884 13.4671 126.983 15.1558C126.083 16.8444 125.632 18.7301 125.632 20.8128C125.632 22.9799 126.083 24.9359 126.983 26.6809C127.884 28.3977 129.066 29.7626 130.53 30.7758C132.021 31.7609 133.639 32.2534 135.384 32.2534Z" fill="#06B6D4"/>
</svg>
