<svg width="109" height="81" viewBox="0 0 109 81" fill="none" xmlns="http://www.w3.org/2000/svg">
<rect x="7.01575" y="6.49512" width="95.1362" height="69.4237" fill="#CFFAFE"/>
<path d="M7.81926 38.9069H35.8871C34.4407 38.0632 33.1752 37.0689 32.0904 35.9239C31.0358 34.7487 30.2072 33.453 29.6046 32.0368C29.0019 30.6207 28.7006 29.099 28.7006 27.4719C28.7006 24.4286 29.7251 21.8824 31.7741 19.8335C33.8532 17.7845 36.4445 16.76 39.5481 16.76C41.1752 16.76 42.727 17.0613 44.2034 17.664C45.6799 18.2666 47.0208 19.1254 48.226 20.2402C49.4614 21.3551 50.501 22.696 51.3447 24.2628V3.87865H57.9436V24.2628C58.8475 22.696 59.9021 21.3551 61.1074 20.2402C62.3127 19.1254 63.6535 18.2666 65.13 17.664C66.6065 17.0613 68.1582 16.76 69.7854 16.76C72.9191 16.76 75.5104 17.7845 77.5594 19.8335C79.6083 21.8824 80.6328 24.4286 80.6328 27.4719C80.6328 29.099 80.3315 30.6207 79.7289 32.0368C79.1262 33.453 78.2825 34.7487 77.1978 35.9239C76.1432 37.0689 74.8927 38.0632 73.4464 38.9069H101.288V45.0538H62.5085C63.081 46.1687 63.8946 47.3287 64.9492 48.534C66.0038 49.7393 67.194 50.8994 68.5198 52.0142C69.8456 53.099 71.2016 54.0331 72.5876 54.8165C74.0038 55.5698 75.3597 56.0519 76.6554 56.2628C78.0113 56.5642 79.0509 57.1065 79.7741 57.89C80.5274 58.6432 80.904 59.6225 80.904 60.8278C80.904 62.0331 80.452 63.1178 79.5481 64.082C78.6742 65.0463 77.4388 65.3928 75.8419 65.1216C74.2449 64.8504 72.5726 64.2779 70.8249 63.4041C69.1074 62.5001 67.42 61.3551 65.7628 59.9691C64.1055 58.5529 62.614 56.9559 61.2882 55.1781C59.9925 53.4003 58.9982 51.502 58.3051 49.4832H57.9436V78.4549H51.3447V49.4832H51.0735C50.3503 51.502 49.3258 53.4003 48 55.1781C46.7044 56.9559 45.2279 58.5529 43.5707 59.9691C41.9134 61.3551 40.211 62.5001 38.4633 63.4041C36.7157 64.2779 35.0735 64.8504 33.5368 65.1216C31.9097 65.3928 30.6441 65.0463 29.7402 64.082C28.8663 63.1178 28.4294 62.0331 28.4294 60.8278C28.4294 59.6225 28.791 58.6432 29.5142 57.89C30.2675 57.1065 31.3221 56.5642 32.678 56.2628C33.9737 56.0519 35.3145 55.5698 36.7006 54.8165C38.1168 54.0331 39.4878 53.099 40.8136 52.0142C42.1394 50.8994 43.3296 49.7393 44.3842 48.534C45.4388 47.3287 46.2524 46.1687 46.8249 45.0538H7.81926V38.9069ZM49.582 38.5453H50.6215V37.5058C50.6215 35.7581 50.3503 34.0858 49.808 32.4888C49.2656 30.8918 48.5123 29.4756 47.5481 28.2402C46.614 27.0048 45.5292 26.0255 44.2938 25.3024C43.0886 24.5792 41.808 24.2176 40.452 24.2176C39.1262 24.2176 38.0716 24.6094 37.2882 25.3928C36.5048 26.1762 36.113 27.2459 36.113 28.6018C36.113 29.777 36.4596 30.9521 37.1526 32.1272C37.8758 33.3024 38.855 34.3721 40.0904 35.3363C41.356 36.3005 42.8023 37.0839 44.4294 37.6866C46.0565 38.2591 47.7741 38.5453 49.582 38.5453ZM59.7063 38.5453C61.5443 38.5453 63.2769 38.2591 64.904 37.6866C66.5311 37.0839 67.9624 36.3005 69.1978 35.3363C70.4332 34.3721 71.4125 33.3024 72.1356 32.1272C72.8588 30.9521 73.2204 29.777 73.2204 28.6018C73.2204 27.2459 72.8287 26.1762 72.0452 25.3928C71.2618 24.6094 70.2072 24.2176 68.8814 24.2176C67.5255 24.2176 66.2298 24.5792 64.9944 25.3024C63.7891 26.0255 62.7044 27.0048 61.7402 28.2402C60.8061 29.4756 60.0678 30.8918 59.5255 32.4888C58.9831 34.0858 58.7119 35.7581 58.7119 37.5058V38.5453H59.7063ZM16.4972 80.76C11.3447 80.76 7.39741 79.389 4.65541 76.647C1.91342 73.9352 0.542419 70.018 0.542419 64.8956V16.6244C0.542419 11.502 1.91342 7.58487 4.65541 4.873C7.39741 2.13101 11.3447 0.76001 16.4972 0.76001H92.8362C97.9887 0.76001 101.936 2.13101 104.678 4.873C107.42 7.58487 108.791 11.502 108.791 16.6244V64.8956C108.791 70.018 107.42 73.9352 104.678 76.647C101.936 79.389 97.9887 80.76 92.8362 80.76H16.4972ZM17.7628 69.099H91.5707C93.3786 69.099 94.7496 68.647 95.6837 67.7431C96.6479 66.809 97.13 65.3928 97.13 63.4945V18.0707C97.13 16.1423 96.6479 14.7261 95.6837 13.8222C94.7496 12.8881 93.3786 12.421 91.5707 12.421H17.7628C15.9548 12.421 14.5688 12.8881 13.6046 13.8222C12.6705 14.7261 12.2034 16.1423 12.2034 18.0707V63.4945C12.2034 65.3928 12.6705 66.809 13.6046 67.7431C14.5688 68.647 15.9548 69.099 17.7628 69.099Z" fill="#06B6D4"/>
</svg>
