<svg width="22" height="34" viewBox="0 0 22 34" fill="none" xmlns="http://www.w3.org/2000/svg">
<path d="M0.42041 18.9668C0.42041 18.6296 0.552572 18.2969 0.816895 17.9688L14.2017 1.68555C14.4751 1.35742 14.7668 1.1569 15.0767 1.08398C15.3866 1.01107 15.6646 1.04297 15.9106 1.17969C16.1659 1.30729 16.3436 1.51693 16.4438 1.80859C16.5441 2.10026 16.5168 2.45117 16.3618 2.86133L12.0415 14.291H20.313C20.6502 14.291 20.9237 14.3958 21.1333 14.6055C21.3521 14.806 21.4614 15.0658 21.4614 15.3848C21.4614 15.722 21.3293 16.0547 21.0649 16.3828L7.68018 32.666C7.40674 32.9941 7.11507 33.1947 6.80518 33.2676C6.49528 33.3496 6.21273 33.3223 5.95752 33.1855C5.71143 33.0579 5.53825 32.8438 5.43799 32.543C5.33773 32.2513 5.36507 31.9004 5.52002 31.4902L9.84033 20.0605H1.56885C1.24072 20.0605 0.967285 19.9603 0.748535 19.7598C0.529785 19.5501 0.42041 19.2858 0.42041 18.9668Z" fill="#3F6212"/>
</svg>
