<svg width="14" height="17" viewBox="0 0 14 17" fill="none" xmlns="http://www.w3.org/2000/svg">
<path d="M14 7.0625H13.9688C12.5312 7.0625 11.2188 6.625 10.1562 5.84375V11.4375C10.1562 14.25 7.875 16.5 5.0625 16.5C2.25 16.5 0 14.25 0 11.4375C0 8.625 2.25 6.34375 5.0625 6.34375C5.3125 6.34375 5.53125 6.375 5.78125 6.40625V9.21875C5.53125 9.125 5.3125 9.09375 5.0625 9.09375C3.78125 9.09375 2.71875 10.1562 2.71875 11.4375C2.71875 12.7188 3.78125 13.7812 5.0625 13.7812C6.34375 13.7812 7.40625 12.7188 7.40625 11.4375V0.5H10.1562C10.1562 0.53125 10.1562 0.53125 10.1562 0.5625C10.1562 0.78125 10.1562 1 10.2188 1.21875C10.4062 2.25 11.0312 3.15625 11.9062 3.71875C12.5 4.125 13.2188 4.34375 13.9688 4.34375C13.9688 4.34375 13.9688 4.34375 14 4.34375V7.0625Z" fill="#94A3B8"/>
</svg>
