<svg width="18" height="13" viewBox="0 0 18 13" fill="none" xmlns="http://www.w3.org/2000/svg">
<path d="M17.1562 2.40625C17.5312 3.71875 17.5312 6.53125 17.5312 6.53125C17.5312 6.53125 17.5312 9.3125 17.1562 10.6562C16.9688 11.4062 16.375 11.9688 15.6562 12.1562C14.3125 12.5 9 12.5 9 12.5C9 12.5 3.65625 12.5 2.3125 12.1562C1.59375 11.9688 1 11.4062 0.8125 10.6562C0.4375 9.3125 0.4375 6.53125 0.4375 6.53125C0.4375 6.53125 0.4375 3.71875 0.8125 2.40625C1 1.65625 1.59375 1.0625 2.3125 0.875C3.65625 0.5 9 0.5 9 0.5C9 0.5 14.3125 0.5 15.6562 0.875C16.375 1.0625 16.9688 1.65625 17.1562 2.40625ZM7.25 9.0625L11.6875 6.53125L7.25 4V9.0625Z" fill="#94A3B8"/>
</svg>
